<svg width="500" height="500" viewBox="0 0 500 500" fill="none" xmlns="http://www.w3.org/2000/svg">
<path fill-rule="evenodd" clip-rule="evenodd" d="M475 5H25C13.9543 5 5 13.9543 5 25V475C5 486.046 13.9543 495 25 495H475C486.046 495 495 486.046 495 475V25C495 13.9543 486.046 5 475 5ZM25 0C11.1929 0 0 11.1929 0 25V475C0 488.807 11.1929 500 25 500H475C488.807 500 500 488.807 500 475V25C500 11.1929 488.807 0 475 0H25ZM12 38C12 24.1929 23.1929 13 37 13H462C475.807 13 487 24.1929 487 38V463C487 476.807 475.807 488 462 488H37C23.1929 488 12 476.807 12 463V38ZM138.141 396H156.889C161.838 396 166.129 395.032 169.761 393.097C173.393 391.146 176.201 388.355 178.184 384.722C180.166 381.074 181.158 376.712 181.158 371.636C181.158 366.561 180.158 362.207 178.16 358.574C176.177 354.926 173.354 352.134 169.69 350.199C166.041 348.248 161.711 347.273 156.699 347.273H138.141V396ZM156.413 384.77H151.369V358.503H156.033C158.571 358.503 160.712 358.891 162.457 359.669C164.217 360.446 165.55 361.786 166.454 363.69C167.374 365.593 167.834 368.242 167.834 371.636C167.834 375.031 167.382 377.68 166.478 379.583C165.589 381.487 164.289 382.827 162.576 383.604C160.878 384.381 158.824 384.77 156.413 384.77ZM201.668 352.983V347.273H192.532V352.983C192.532 355.172 192.27 357.02 191.747 358.527C191.223 360.034 190.628 361.358 189.962 362.5L195.387 365.26C196.402 364.372 197.385 363.269 198.337 361.953C199.305 360.62 200.098 359.185 200.716 357.646C201.351 356.092 201.668 354.537 201.668 352.983ZM224.415 347.273H211.186V396H244.115V385.341H224.415V347.273ZM252.813 396H266.041V347.273H252.813V396ZM274.328 347.273V357.932H288.985V396H302.023V357.932H316.679V347.273H274.328ZM360.126 347.273H325.008V396H360.031V385.341H338.237V376.966H358.317V366.307H338.237V357.932H360.126V347.273ZM176.513 171L162.142 122.273H176.893L183.555 152.251H183.936L191.835 122.273H203.446L211.345 152.347H211.726L218.388 122.273H233.139L218.768 171H206.111L197.831 143.781H197.45L189.17 171H176.513ZM284.901 146.636C284.901 152.061 283.846 156.637 281.737 160.365C279.627 164.076 276.78 166.892 273.195 168.811C269.611 170.714 265.613 171.666 261.204 171.666C256.762 171.666 252.749 170.707 249.165 168.787C245.596 166.852 242.757 164.029 240.647 160.317C238.553 156.59 237.506 152.029 237.506 146.636C237.506 141.212 238.553 136.643 240.647 132.932C242.757 129.204 245.596 126.389 249.165 124.485C252.749 122.566 256.762 121.607 261.204 121.607C265.613 121.607 269.611 122.566 273.195 124.485C276.78 126.389 279.627 129.204 281.737 132.932C283.846 136.643 284.901 141.212 284.901 146.636ZM271.292 146.636C271.292 143.718 270.903 141.259 270.126 139.261C269.365 137.246 268.231 135.723 266.724 134.692C265.233 133.646 263.393 133.122 261.204 133.122C259.015 133.122 257.167 133.646 255.66 134.692C254.169 135.723 253.035 137.246 252.258 139.261C251.496 141.259 251.116 143.718 251.116 146.636C251.116 149.555 251.496 152.021 252.258 154.036C253.035 156.034 254.169 157.557 255.66 158.604C257.167 159.635 259.015 160.151 261.204 160.151C263.393 160.151 265.233 159.635 266.724 158.604C268.231 157.557 269.365 156.034 270.126 154.036C270.903 152.021 271.292 149.555 271.292 146.636ZM294.372 122.273H307.601V141.973H308.267L322.923 122.273H338.341L321.876 143.972L338.721 171H322.923L311.978 152.727L307.601 158.438V171H294.372V122.273ZM422.522 167.356C424.335 175.643 425.151 184.015 424.974 192.365H425C425 210.571 420.473 228.598 411.679 245.418C402.884 262.238 389.994 277.521 373.744 290.395C357.493 303.268 338.202 313.48 316.97 320.447C295.738 327.414 272.981 331 250 331C227.019 331 204.262 327.414 183.03 320.447C161.798 313.48 142.507 303.268 126.256 290.395C110.006 277.521 97.1156 262.238 88.3211 245.418C79.5265 228.598 75 210.571 75 192.365H75.0544C74.8124 184.677 75.4108 176.968 76.8572 169.321L89.9132 170.85C88.5628 177.989 88.0118 185.187 88.2532 192.365L250 192.365H411.776C411.957 184.575 411.204 176.764 409.512 169.033L422.522 167.356Z" fill="#FF6F6F" fill-opacity="0.8"/>
</svg>
